<svg width="17" height="17" viewBox="0 0 17 17" fill="none" xmlns="http://www.w3.org/2000/svg">
<path d="M6.65833 3.85201C4.95833 5.76035 3.79167 8.50201 3.68333 8.76035L1.8 7.95201C1.25833 7.71868 1.125 7.01035 1.54167 6.59368L4.05 4.08535C4.44167 3.69368 5.00833 3.51868 5.55833 3.62701L6.65833 3.85201ZM7.9 12.3187C8.15 12.5687 8.51667 12.6353 8.83333 12.4853C9.8 12.0353 11.875 10.977 13.2167 9.63535C17.0417 5.81035 17.075 2.69368 16.85 1.36035C16.7917 1.02701 16.525 0.760348 16.1917 0.702014C14.8583 0.477014 11.7417 0.510348 7.91667 4.33535C6.575 5.67701 5.525 7.75201 5.06667 8.71868C4.91667 9.03535 4.99167 9.41035 5.23333 9.65201L7.9 12.3187ZM13.7083 10.902C11.8 12.602 9.05833 13.7687 8.8 13.877L9.60833 15.7603C9.84167 16.302 10.55 16.4353 10.9667 16.0187L13.475 13.5103C13.8667 13.1187 14.0417 12.552 13.9333 12.002L13.7083 10.902ZM6.45 13.0687C6.61667 13.952 6.325 14.7687 5.76667 15.327C5.125 15.9687 3.13333 16.4437 1.84167 16.6937C1.26667 16.802 0.758333 16.2937 0.866667 15.7187C1.11667 14.427 1.58333 12.4353 2.23333 11.7937C2.79167 11.2353 3.60833 10.9437 4.49167 11.1103C5.46667 11.2937 6.26667 12.0937 6.45 13.0687ZM9.83333 6.06035C9.83333 5.14368 10.5833 4.39368 11.5 4.39368C12.4167 4.39368 13.1667 5.14368 13.1667 6.06035C13.1667 6.97702 12.4167 7.72701 11.5 7.72701C10.5833 7.72701 9.83333 6.97702 9.83333 6.06035Z" fill="#9DA3AC"/>
</svg>
