<svg width="16" height="17" viewBox="0 0 16 17" fill="none" xmlns="http://www.w3.org/2000/svg">
<path d="M2.16667 11.852L7.16667 14.7479V9.03955L2.16667 6.14372V11.852ZM8.83333 14.7479L13.8333 11.852V6.14372L8.83333 9.03955V14.7479ZM3.0625 4.74788L8 7.60205L12.9375 4.74788L8 1.89372L3.0625 4.74788ZM0.5 12.8312V5.24788C0.5 4.94233 0.572917 4.66455 0.71875 4.41455C0.864583 4.16455 1.06944 3.96316 1.33333 3.81038L7.16667 0.456217C7.43056 0.30344 7.70833 0.227051 8 0.227051C8.29167 0.227051 8.56944 0.30344 8.83333 0.456217L14.6667 3.81038C14.9306 3.96316 15.1354 4.16455 15.2812 4.41455C15.4271 4.66455 15.5 4.94233 15.5 5.24788V11.8729C15.5 12.1784 15.4271 12.4562 15.2812 12.7062C15.1354 12.9562 14.9306 13.1576 14.6667 13.3104L8.83333 16.6645C8.56944 16.8173 8.29167 16.8937 8 16.8937C7.70833 16.8937 7.43056 16.8173 7.16667 16.6645L0.5 12.8312Z" fill="#9DA3AC"/>
</svg>
