<svg width="20" height="13" viewBox="0 0 20 13" fill="none" xmlns="http://www.w3.org/2000/svg">
<path d="M6.66658 12.4543C6.43047 12.4543 6.23242 12.3743 6.07242 12.2143C5.91297 12.0548 5.83325 11.857 5.83325 11.6209H4.16658C3.24992 11.6209 2.4652 11.2945 1.81242 10.6418C1.15964 9.98899 0.833252 9.20426 0.833252 8.2876V4.12093C0.833252 3.20426 1.15964 2.41954 1.81242 1.76676C2.4652 1.11399 3.24992 0.787598 4.16658 0.787598H15.8333C16.7499 0.787598 17.5346 1.11399 18.1874 1.76676C18.8402 2.41954 19.1666 3.20426 19.1666 4.12093V8.2876C19.1666 9.20426 18.8402 9.98899 18.1874 10.6418C17.5346 11.2945 16.7499 11.6209 15.8333 11.6209H14.1666C14.1666 11.857 14.0866 12.0548 13.9266 12.2143C13.7671 12.3743 13.5694 12.4543 13.3333 12.4543H6.66658ZM4.16658 9.95426H15.8333C16.2916 9.95426 16.6841 9.79093 17.0107 9.46426C17.3369 9.13815 17.4999 8.74593 17.4999 8.2876V4.12093C17.4999 3.6626 17.3369 3.2701 17.0107 2.94343C16.6841 2.61732 16.2916 2.45426 15.8333 2.45426H4.16658C3.70825 2.45426 3.31575 2.61732 2.98908 2.94343C2.66297 3.2701 2.49992 3.6626 2.49992 4.12093V8.2876C2.49992 8.74593 2.66297 9.13815 2.98908 9.46426C3.31575 9.79093 3.70825 9.95426 4.16658 9.95426Z" fill="#757575"/>
</svg>
