<svg width="12" height="14" viewBox="0 0 12 14" fill="none" xmlns="http://www.w3.org/2000/svg">
<path d="M5.33339 13.4833L0.666728 10.7999C0.455617 10.6777 0.291728 10.5166 0.175061 10.3166C0.0583944 10.1166 6.10352e-05 9.89436 6.10352e-05 9.64992V4.34992C6.10352e-05 4.10547 0.0583944 3.88325 0.175061 3.68325C0.291728 3.48325 0.455617 3.32214 0.666728 3.19992L5.33339 0.516585C5.54451 0.394363 5.76673 0.333252 6.00006 0.333252C6.23339 0.333252 6.45562 0.394363 6.66673 0.516585L11.3334 3.19992C11.5445 3.32214 11.7084 3.48325 11.8251 3.68325C11.9417 3.88325 12.0001 4.10547 12.0001 4.34992V9.64992C12.0001 9.89436 11.9417 10.1166 11.8251 10.3166C11.7084 10.5166 11.5445 10.6777 11.3334 10.7999L6.66673 13.4833C6.45562 13.6055 6.23339 13.6666 6.00006 13.6666C5.76673 13.6666 5.54451 13.6055 5.33339 13.4833ZM6.00006 12.3333L6.66673 11.9499V7.38325L10.6667 5.06659V4.36659L9.95006 3.94992L6.00006 6.23325L2.05006 3.94992L1.33339 4.36659V5.06659L5.33339 7.38325V11.9499L6.00006 12.3333Z" fill="black"/>
</svg>
