<svg width="17" height="17" viewBox="0 0 17 17" fill="none" xmlns="http://www.w3.org/2000/svg">
<path d="M6.65839 3.29171C4.95839 5.20005 3.79172 7.94171 3.68339 8.20004L1.80005 7.39171C1.25839 7.15838 1.12505 6.45005 1.54172 6.03338L4.05005 3.52505C4.44172 3.13338 5.00839 2.95838 5.55839 3.06671L6.65839 3.29171ZM7.90005 11.7584C8.15005 12.0084 8.51672 12.075 8.83339 11.925C9.80005 11.475 11.8751 10.4167 13.2167 9.07504C17.0417 5.25004 17.0751 2.13338 16.8501 0.800045C16.7917 0.466712 16.5251 0.200045 16.1917 0.141712C14.8584 -0.0832884 11.7417 -0.0499552 7.91672 3.77505C6.57505 5.11671 5.52505 7.19171 5.06672 8.15838C4.91672 8.47504 4.99172 8.85005 5.23339 9.09171L7.90005 11.7584ZM13.7084 10.3417C11.8001 12.0417 9.05839 13.2084 8.80005 13.3167L9.60839 15.2C9.84172 15.7417 10.5501 15.875 10.9667 15.4584L13.4751 12.95C13.8667 12.5584 14.0417 11.9917 13.9334 11.4417L13.7084 10.3417ZM6.45005 12.5084C6.61672 13.3917 6.32505 14.2084 5.76672 14.7667C5.12505 15.4084 3.13339 15.8834 1.84172 16.1334C1.26672 16.2417 0.758388 15.7334 0.866721 15.1584C1.11672 13.8667 1.58339 11.875 2.23339 11.2334C2.79172 10.675 3.60839 10.3834 4.49172 10.55C5.46672 10.7334 6.26672 11.5334 6.45005 12.5084ZM9.83339 5.50005C9.83339 4.58338 10.5834 3.83338 11.5001 3.83338C12.4167 3.83338 13.1667 4.58338 13.1667 5.50005C13.1667 6.41671 12.4167 7.16671 11.5001 7.16671C10.5834 7.16671 9.83339 6.41671 9.83339 5.50005Z" fill="white"/>
</svg>
