<svg width="20" height="20" viewBox="0 0 20 20" fill="none" xmlns="http://www.w3.org/2000/svg">
<path d="M13.3333 10H15V13.3333H13.3333V10Z" fill="black"/>
<path d="M16.6667 5.83333V4.16667C16.6667 3.2475 15.9192 2.5 15 2.5H4.16666C2.78832 2.5 1.66666 3.62167 1.66666 5V15C1.66666 16.8342 3.16166 17.5 4.16666 17.5H16.6667C17.5858 17.5 18.3333 16.7525 18.3333 15.8333V7.5C18.3333 6.58083 17.5858 5.83333 16.6667 5.83333ZM4.16666 4.16667H15V5.83333H4.16666C3.95209 5.82374 3.74949 5.73174 3.60105 5.57651C3.45261 5.42129 3.36977 5.21478 3.36977 5C3.36977 4.78522 3.45261 4.57871 3.60105 4.42349C3.74949 4.26826 3.95209 4.17626 4.16666 4.16667ZM16.6667 15.8333H4.17666C3.79166 15.8233 3.33332 15.6708 3.33332 15V7.34583C3.59499 7.44 3.87249 7.5 4.16666 7.5H16.6667V15.8333Z" fill="black"/>
</svg>
