<svg width="40" height="36" viewBox="0 0 40 36" fill="none" xmlns="http://www.w3.org/2000/svg">
<g clip-path="url(#clip0_2398_2264)">
<rect width="16.4708" height="16.4707" transform="matrix(-0.980852 0.194754 -0.321764 0.94682 36.3499 14.7974)" fill="#FFA0F2"/>
<rect width="16.4707" height="16.4707" transform="matrix(0.659088 0.752066 -0.321764 0.94682 9.33911 5.61823)" fill="#FFA0F2"/>
<rect width="16.4707" height="16.4708" transform="matrix(0.980852 -0.194754 0.659088 0.752066 9.33911 5.61823)" fill="#FFA0F2"/>
<path d="M30.5149 30.4985L15.4301 33.4936C15.0989 33.5594 14.7577 33.4435 14.5352 33.1895L4.39884 21.6232C4.17627 21.3693 4.1061 21.0159 4.21476 20.6961L9.16328 6.13469C9.27193 5.81496 9.54291 5.57749 9.87413 5.51172L24.959 2.51654C25.2902 2.45078 25.6313 2.56671 25.8539 2.82067L35.9902 14.3869C36.2128 14.6409 36.283 14.9943 36.1743 15.314L31.2258 29.8755C31.1171 30.1952 30.8462 30.4327 30.5149 30.4985Z" stroke="black"/>
<path d="M9.32314 5.61535L20.1965 18.0278M20.1965 18.0278L36.1474 14.8612M20.1965 18.0278L15.0793 33.0857" stroke="black"/>
</g>
<defs>
<clipPath id="clip0_2398_2264">
<rect width="40" height="36" fill="white"/>
</clipPath>
</defs>
</svg>
