<svg width="89" height="40" viewBox="0 0 89 40" fill="none" xmlns="http://www.w3.org/2000/svg">
<rect x="0.833252" y="0.5" width="39" height="39" rx="19.5" fill="url(#paint0_linear_2398_2050)"/>
<rect x="0.833252" y="0.5" width="39" height="39" rx="19.5" stroke="#F0F0F0"/>
<path d="M22.7995 11.9376H13V14.7471H22.7995C23.5726 14.7471 24.1995 15.3762 24.1995 16.1519V17.5567H17.2857C14.9188 17.5567 13 19.4754 13 21.8424V28.7948H15.7999V22.1882L22.8856 28.7944H27L17.9592 20.3662H24.1995V17.5704H27V16.1519C27 13.8244 25.1188 11.9376 22.7995 11.9376Z" fill="#DDDDDD"/>
<path fill-rule="evenodd" clip-rule="evenodd" d="M20.3334 33.2967C27.6767 33.2967 33.6297 27.3437 33.6297 20.0004C33.6297 12.657 27.6767 6.70408 20.3334 6.70408C12.9901 6.70408 7.03709 12.657 7.03709 20.0004C7.03709 27.3437 12.9901 33.2967 20.3334 33.2967ZM34.6934 20.0004C34.6934 27.9312 28.2642 34.3604 20.3334 34.3604C12.4026 34.3604 5.97339 27.9312 5.97339 20.0004C5.97339 12.0696 12.4026 5.64038 20.3334 5.64038C28.2642 5.64038 34.6934 12.0696 34.6934 20.0004Z" fill="url(#paint1_linear_2398_2050)"/>
<path fill-rule="evenodd" clip-rule="evenodd" d="M20.3284 34.4193C28.2945 34.4193 34.7523 27.9615 34.7523 19.9954C34.7523 12.0293 28.2945 5.57148 20.3284 5.57148C12.3623 5.57148 5.90449 12.0293 5.90449 19.9954C5.90449 27.9615 12.3623 34.4193 20.3284 34.4193ZM20.3284 37.0904C29.7697 37.0904 37.4234 29.4367 37.4234 19.9954C37.4234 10.5541 29.7697 2.90039 20.3284 2.90039C10.8871 2.90039 3.2334 10.5541 3.2334 19.9954C3.2334 29.4367 10.8871 37.0904 20.3284 37.0904Z" fill="url(#paint2_linear_2398_2050)"/>
<path d="M20.3284 34.5529C28.3683 34.5529 34.8858 28.0353 34.8858 19.9954C34.8858 11.9555 28.3683 5.43795 20.3284 5.43795C12.2885 5.43795 5.77093 11.9555 5.77093 19.9954C5.77093 28.0353 12.2885 34.5529 20.3284 34.5529ZM37.2898 19.9954C37.2898 29.3629 29.6959 36.9569 20.3284 36.9569C10.9609 36.9569 3.36694 29.3629 3.36694 19.9954C3.36694 10.6279 10.9609 3.03397 20.3284 3.03397C29.6959 3.03397 37.2898 10.6279 37.2898 19.9954Z" stroke="url(#paint3_linear_2398_2050)" stroke-width="0.267151" stroke-linejoin="round"/>
<rect x="24.8333" y="0.5" width="39" height="39" rx="19.5" fill="url(#paint4_linear_2398_2050)"/>
<rect x="24.8333" y="0.5" width="39" height="39" rx="19.5" stroke="#F0F0F0"/>
<path d="M46.7995 11.9376H37V14.7471H46.7995C47.5726 14.7471 48.1995 15.3762 48.1995 16.1519V17.5567H41.2857C38.9188 17.5567 37 19.4754 37 21.8424V28.7948H39.7999V22.1882L46.8856 28.7944H51L41.9592 20.3662H48.1995V17.5704H51V16.1519C51 13.8244 49.1188 11.9376 46.7995 11.9376Z" fill="#DDDDDD"/>
<path fill-rule="evenodd" clip-rule="evenodd" d="M44.3334 33.2967C51.6767 33.2967 57.6297 27.3437 57.6297 20.0004C57.6297 12.657 51.6767 6.70408 44.3334 6.70408C36.9901 6.70408 31.0371 12.657 31.0371 20.0004C31.0371 27.3437 36.9901 33.2967 44.3334 33.2967ZM58.6934 20.0004C58.6934 27.9312 52.2642 34.3604 44.3334 34.3604C36.4026 34.3604 29.9734 27.9312 29.9734 20.0004C29.9734 12.0696 36.4026 5.64038 44.3334 5.64038C52.2642 5.64038 58.6934 12.0696 58.6934 20.0004Z" fill="url(#paint5_linear_2398_2050)"/>
<path fill-rule="evenodd" clip-rule="evenodd" d="M44.3284 34.4193C52.2945 34.4193 58.7523 27.9615 58.7523 19.9954C58.7523 12.0293 52.2945 5.57148 44.3284 5.57148C36.3623 5.57148 29.9045 12.0293 29.9045 19.9954C29.9045 27.9615 36.3623 34.4193 44.3284 34.4193ZM44.3284 37.0904C53.7697 37.0904 61.4234 29.4367 61.4234 19.9954C61.4234 10.5541 53.7697 2.90039 44.3284 2.90039C34.8871 2.90039 27.2334 10.5541 27.2334 19.9954C27.2334 29.4367 34.8871 37.0904 44.3284 37.0904Z" fill="url(#paint6_linear_2398_2050)"/>
<path d="M44.3284 34.5529C52.3683 34.5529 58.8858 28.0353 58.8858 19.9954C58.8858 11.9555 52.3683 5.43795 44.3284 5.43795C36.2885 5.43795 29.7709 11.9555 29.7709 19.9954C29.7709 28.0353 36.2885 34.5529 44.3284 34.5529ZM61.2898 19.9954C61.2898 29.3629 53.6959 36.9569 44.3284 36.9569C34.9609 36.9569 27.3669 29.3629 27.3669 19.9954C27.3669 10.6279 34.9609 3.03397 44.3284 3.03397C53.6959 3.03397 61.2898 10.6279 61.2898 19.9954Z" stroke="url(#paint7_linear_2398_2050)" stroke-width="0.267151" stroke-linejoin="round"/>
<rect x="48.8333" y="0.5" width="39" height="39" rx="19.5" fill="url(#paint8_linear_2398_2050)"/>
<rect x="48.8333" y="0.5" width="39" height="39" rx="19.5" stroke="#F0F0F0"/>
<path d="M70.7995 11.9376H61V14.7471H70.7995C71.5726 14.7471 72.1995 15.3762 72.1995 16.1519V17.5567H65.2857C62.9188 17.5567 61 19.4754 61 21.8424V28.7948H63.7999V22.1882L70.8856 28.7944H75L65.9592 20.3662H72.1995V17.5704H75V16.1519C75 13.8244 73.1188 11.9376 70.7995 11.9376Z" fill="#DDDDDD"/>
<path fill-rule="evenodd" clip-rule="evenodd" d="M68.3334 33.2967C75.6767 33.2967 81.6297 27.3437 81.6297 20.0004C81.6297 12.657 75.6767 6.70408 68.3334 6.70408C60.9901 6.70408 55.0371 12.657 55.0371 20.0004C55.0371 27.3437 60.9901 33.2967 68.3334 33.2967ZM82.6934 20.0004C82.6934 27.9312 76.2642 34.3604 68.3334 34.3604C60.4026 34.3604 53.9734 27.9312 53.9734 20.0004C53.9734 12.0696 60.4026 5.64038 68.3334 5.64038C76.2642 5.64038 82.6934 12.0696 82.6934 20.0004Z" fill="url(#paint9_linear_2398_2050)"/>
<path fill-rule="evenodd" clip-rule="evenodd" d="M68.3284 34.4193C76.2945 34.4193 82.7523 27.9615 82.7523 19.9954C82.7523 12.0293 76.2945 5.57148 68.3284 5.57148C60.3623 5.57148 53.9045 12.0293 53.9045 19.9954C53.9045 27.9615 60.3623 34.4193 68.3284 34.4193ZM68.3284 37.0904C77.7697 37.0904 85.4234 29.4367 85.4234 19.9954C85.4234 10.5541 77.7697 2.90039 68.3284 2.90039C58.8871 2.90039 51.2334 10.5541 51.2334 19.9954C51.2334 29.4367 58.8871 37.0904 68.3284 37.0904Z" fill="url(#paint10_linear_2398_2050)"/>
<path d="M68.3284 34.5529C76.3683 34.5529 82.8858 28.0353 82.8858 19.9954C82.8858 11.9555 76.3683 5.43795 68.3284 5.43795C60.2885 5.43795 53.7709 11.9555 53.7709 19.9954C53.7709 28.0353 60.2885 34.5529 68.3284 34.5529ZM85.2898 19.9954C85.2898 29.3629 77.6959 36.9569 68.3284 36.9569C58.9609 36.9569 51.3669 29.3629 51.3669 19.9954C51.3669 10.6279 58.9609 3.03397 68.3284 3.03397C77.6959 3.03397 85.2898 10.6279 85.2898 19.9954Z" stroke="url(#paint11_linear_2398_2050)" stroke-width="0.267151" stroke-linejoin="round"/>
<defs>
<linearGradient id="paint0_linear_2398_2050" x1="20.3333" y1="0" x2="20.3333" y2="40" gradientUnits="userSpaceOnUse">
<stop stop-color="#EDEDED"/>
<stop offset="1" stop-color="white"/>
</linearGradient>
<linearGradient id="paint1_linear_2398_2050" x1="13.8803" y1="6.49011" x2="29.5102" y2="32.2858" gradientUnits="userSpaceOnUse">
<stop stop-color="#DBE3E5"/>
<stop offset="1" stop-color="#D3DBDD"/>
</linearGradient>
<linearGradient id="paint2_linear_2398_2050" x1="12.0596" y1="3.87224" x2="35.1621" y2="34.8883" gradientUnits="userSpaceOnUse">
<stop stop-color="#D9E5E9"/>
<stop offset="1" stop-color="#C4CFD3"/>
</linearGradient>
<linearGradient id="paint3_linear_2398_2050" x1="31.1764" y1="35.3689" x2="11.0499" y2="1.52994" gradientUnits="userSpaceOnUse">
<stop stop-color="#C2CDD1"/>
<stop offset="1" stop-color="#B8C2C5"/>
</linearGradient>
<linearGradient id="paint4_linear_2398_2050" x1="44.3333" y1="0" x2="44.3333" y2="40" gradientUnits="userSpaceOnUse">
<stop stop-color="#EDEDED"/>
<stop offset="1" stop-color="white"/>
</linearGradient>
<linearGradient id="paint5_linear_2398_2050" x1="37.8803" y1="6.49011" x2="53.5102" y2="32.2858" gradientUnits="userSpaceOnUse">
<stop stop-color="#DBE3E5"/>
<stop offset="1" stop-color="#D3DBDD"/>
</linearGradient>
<linearGradient id="paint6_linear_2398_2050" x1="36.0596" y1="3.87224" x2="59.1621" y2="34.8883" gradientUnits="userSpaceOnUse">
<stop stop-color="#D9E5E9"/>
<stop offset="1" stop-color="#C4CFD3"/>
</linearGradient>
<linearGradient id="paint7_linear_2398_2050" x1="55.1764" y1="35.3689" x2="35.0499" y2="1.52994" gradientUnits="userSpaceOnUse">
<stop stop-color="#C2CDD1"/>
<stop offset="1" stop-color="#B8C2C5"/>
</linearGradient>
<linearGradient id="paint8_linear_2398_2050" x1="68.3333" y1="0" x2="68.3333" y2="40" gradientUnits="userSpaceOnUse">
<stop stop-color="#EDEDED"/>
<stop offset="1" stop-color="white"/>
</linearGradient>
<linearGradient id="paint9_linear_2398_2050" x1="61.8803" y1="6.49011" x2="77.5102" y2="32.2858" gradientUnits="userSpaceOnUse">
<stop stop-color="#DBE3E5"/>
<stop offset="1" stop-color="#D3DBDD"/>
</linearGradient>
<linearGradient id="paint10_linear_2398_2050" x1="60.0596" y1="3.87224" x2="83.1621" y2="34.8883" gradientUnits="userSpaceOnUse">
<stop stop-color="#D9E5E9"/>
<stop offset="1" stop-color="#C4CFD3"/>
</linearGradient>
<linearGradient id="paint11_linear_2398_2050" x1="79.1764" y1="35.3689" x2="59.0499" y2="1.52994" gradientUnits="userSpaceOnUse">
<stop stop-color="#C2CDD1"/>
<stop offset="1" stop-color="#B8C2C5"/>
</linearGradient>
</defs>
</svg>
